<?xml version="1.0" encoding="utf-8"?>
<!-- Generator: Adobe Illustrator 26.0.0, SVG Export Plug-In . SVG Version: 6.00 Build 0)  -->
<svg version="1.1" id="Camada_1" xmlns="http://www.w3.org/2000/svg" xmlns:xlink="http://www.w3.org/1999/xlink" x="0px" y="0px"
	 viewBox="0 0 1058 982" style="enable-background:new 0 0 1058 982;" xml:space="preserve">
<style type="text/css">
	.st0{fill:#DBDBDB;}
	.st1{fill:#09FF75;}
	.st2{fill:#44FECE;}
	.st3{fill:#00A4FF;}
	.st4{fill:#223749;}
	.st5{fill:#FE9F73;}
	.st6{fill:#FFFFFF;}
	.st7{fill:#EDEDED;}
	.st8{fill:#F49069;}
	.st9{fill:#1F4856;}
	.st10{fill:#182020;}
	.st11{fill:#C9C9C9;}
	.st12{fill:#F07162;}
	.st13{fill:#FBFDFC;}
	.st14{fill:#2B3838;}
	.st15{fill:#0C1111;}
	.st16{fill:#62CFFF;}
	.st17{fill:#210E1E;}
	.st18{fill:#E2F2F1;}
</style>
<g>
	<g>
		<g>
			<g>
				<path class="st0" d="M554.9,230.2c3.6-16.3,4.5-32.9,2.8-49l34.9-19.9l-9.1-26l-9.1-26l-39.8,6.2c-8.7-13.7-19.7-26.1-32.7-36.6
					l10.6-38.8l-24.8-12l-24.8-12l-23.8,32.5c-16.3-3.6-32.8-4.5-49-2.8l-19.9-35l-26,9.1l-26,9.1l6.2,39.8
					c-13.7,8.7-26.1,19.7-36.6,32.7l-38.8-10.6l-12,24.8l-12,24.8l32.5,23.8c-3.6,16.3-4.5,32.8-2.8,49l-34.9,19.9l9.1,26l9.1,26
					l39.8-6.2c8.7,13.7,19.7,26.1,32.7,36.6l-10.6,38.8l24.8,12l24.8,12l23.8-32.5c16.3,3.6,32.8,4.5,49,2.8l19.9,35l26-9.1l26-9.1
					l-6.2-39.8c13.7-8.7,26.1-19.7,36.6-32.7l38.8,10.6l12-24.8l12-24.8L554.9,230.2z M410.1,300.3c-57,2-104.8-42.5-106.8-99.4
					c-2-57,42.5-104.8,99.4-106.8c57-2,104.8,42.5,106.8,99.4C511.6,250.4,467.1,298.3,410.1,300.3z"/>
			</g>
		</g>
	</g>
</g>
<g>
	<g>
		<g>
			<g>
				<g>
					<path class="st0" d="M919.4,379c-3.9-10.9-9.6-20.8-16.6-29.6l13-24.6L900.8,313l-14.9-11.8L865,319.6
						c-10.2-4.8-21.2-7.9-32.7-9.2l-8.2-26.6l-18.9,2.2l-18.9,2.2l-1.8,27.8c-10.9,3.9-20.8,9.6-29.6,16.6l-24.6-13l-11.8,14.9
						l-11.8,14.9l18.4,20.9c-4.8,10.2-7.9,21.2-9.2,32.7l-26.6,8.2l2.2,18.9l2.2,18.9l27.8,1.8c3.9,10.9,9.6,20.8,16.6,29.6
						l-13,24.6l14.9,11.8l14.9,11.8l20.9-18.4c10.2,4.8,21.2,7.9,32.7,9.2l8.2,26.6l18.9-2.2l18.9-2.2l1.8-27.8
						c10.9-3.9,20.8-9.6,29.6-16.6l24.6,13l11.8-14.9l11.8-14.9l-18.4-20.9c4.8-10.2,7.9-21.2,9.2-32.7l26.6-8.2l-2.2-18.9
						l-2.2-18.9L919.4,379z M828.9,485.8c-39.1,4.7-74.6-23.3-79.3-62.5c-4.7-39.1,23.3-74.6,62.4-79.3
						c39.1-4.7,74.6,23.3,79.3,62.5C896,445.7,868,481.2,828.9,485.8z"/>
				</g>
			</g>
		</g>
	</g>
</g>
<g>
	<g>
		<g>
			<g>
				<g>
					<g>
						<g>
							<path class="st1" d="M774.3,182.6c0,0,35.5-58.6,120.5-43.4C894.8,139.2,837.6,224.1,774.3,182.6z"/>
						</g>
					</g>
				</g>
			</g>
		</g>
	</g>
	<g>
		<g>
			<g>
				<g>
					<g>
						<g>
							<path class="st2" d="M718.9,198.1c0,0,10.6-117.5,153.7-158.3C872.6,39.8,848.2,214.5,718.9,198.1z"/>
						</g>
					</g>
				</g>
			</g>
		</g>
	</g>
</g>
<g>
	<g>
		<g>
			<g>
				<path class="st3" d="M780.9,913.3H435.1c-10.1,0-18.3-8.2-18.3-18.3V175.2c0-11.6,9.4-21,21-21h340.4c11.6,0,21,9.4,21,21V895
					C799.2,905.1,791,913.3,780.9,913.3z"/>
			</g>
		</g>
	</g>
	<g>
		<g>
			<path class="st0" d="M783.2,154.2H432.8c-8.8,0-16,7.2-16,16v38.3h382.4v-38.3C799.2,161.3,792.1,154.2,783.2,154.2z"/>
		</g>
	</g>
	<g>
		<g>
			<g>
				<path class="st4" d="M776.2,138.3H439.9c-21.6,0-39.2,17.5-39.2,39.2V899c0,21.6,17.5,39.2,39.2,39.2h336.3
					c21.6,0,39.2-17.5,39.2-39.2V177.5C815.4,155.9,797.8,138.3,776.2,138.3z M799.2,892c0,11.8-9.5,21.3-21.3,21.3H438.1
					c-11.8,0-21.3-9.5-21.3-21.3V177.9c0-13.1,10.6-23.8,23.8-23.8h334.9c13.1,0,23.8,10.6,23.8,23.8V892z"/>
			</g>
		</g>
	</g>
	<g>
		<g>
			
				<ellipse transform="matrix(1.665883e-02 -0.9999 0.9999 1.665883e-02 253.1963 620.69)" class="st3" cx="442.2" cy="181.6" rx="5.3" ry="5.3"/>
		</g>
	</g>
	<g>
		<g>
			
				<ellipse transform="matrix(1.784793e-02 -0.9998 0.9998 1.784793e-02 268.7119 636.7914)" class="st3" cx="458.5" cy="181.6" rx="5.3" ry="5.3"/>
		</g>
	</g>
	<g>
		<g>
			
				<ellipse transform="matrix(1.665883e-02 -0.9999 0.9999 1.665883e-02 285.3103 653.3435)" class="st3" cx="474.8" cy="181.6" rx="5.3" ry="5.3"/>
		</g>
	</g>
	<g>
		<g>
			<g>
				<path class="st3" d="M730,172.1v3.8h-2.1v6.5h2.1v4.5h41.5v-14.8H730z M770.1,185.7h-38.7v-12.4h38.7V185.7z"/>
			</g>
		</g>
		<g>
			<g>
				<rect x="763.6" y="175.3" class="st3" width="4.1" height="8.4"/>
			</g>
		</g>
		<g>
			<g>
				<rect x="756.7" y="175.3" class="st3" width="4.1" height="8.4"/>
			</g>
		</g>
		<g>
			<g>
				<rect x="749.7" y="175.3" class="st3" width="4.1" height="8.4"/>
			</g>
		</g>
	</g>
</g>
<g>
	<g>
		<g>
			<g>
				<g>
					<g>
						<g>
							<g>
								<polygon class="st5" points="400.4,914 361,927.4 356.6,918.7 342.2,887.6 383.2,874.6 								"/>
							</g>
						</g>
					</g>
				</g>
			</g>
		</g>
	</g>
</g>
<g>
	<g>
		<g>
			<path class="st6" d="M360.1,930.1l34.5-11.4l8.9-19.9l30.6,6.8l5.5-1.8c1.9-0.6,4.1,0.1,5,1.8c1.3,2.3,0.1,5.2-2.3,6l-80.2,26.6
				c-0.6,0.2-1.2-0.1-1.4-0.7l-1.7-5.2C358.8,931.3,359.3,930.4,360.1,930.1z"/>
		</g>
	</g>
	<g>
		<g>
			<path class="st7" d="M360.4,930l-4.7-14.2c0,0,3.2-9.7,13.4-8.7c0,0,16.5,5.1,24.5-10.3l33.6,3.3c0,0,8.9,0,12.5,3.6L360.4,930z"
				/>
		</g>
	</g>
	<g>
		<g>
			<g>
				<g>
					<rect x="357.8" y="915.5" transform="matrix(0.9493 -0.3145 0.3145 0.9493 -272.0555 159.4186)" width="0.6" height="14.8"/>
				</g>
			</g>
		</g>
	</g>
	<g>
		<g>
			<g>
				<g>
					<path d="M382.4,907.2c1.1-0.4,1.8-0.7,1.8-0.7l-0.3-0.6c-0.1,0-6.7,3.3-14.7,0.9l-0.2,0.6C374.8,909.2,379.9,908.1,382.4,907.2
						z"/>
				</g>
			</g>
		</g>
	</g>
	<g>
		<g>
			<g>
				<g>
					<rect x="364.2" y="921.7" transform="matrix(0.269 -0.9631 0.9631 0.269 -623.5967 1026.5347)" width="0.6" height="4.8"/>
				</g>
			</g>
		</g>
	</g>
	<g>
		<g>
			<g>
				<g>
					<rect x="366.6" y="920.1" transform="matrix(0.2701 -0.9628 0.9628 0.2701 -620.3798 1026.6469)" width="0.6" height="4.8"/>
				</g>
			</g>
		</g>
	</g>
	<g>
		<g>
			<g>
				<g>
					<g>
						<g>
							<g>
								<g>
									<g>
										<g>
											<path d="M444.9,910c0.7-1.1,0.8-2.5,0.4-3.7c-0.8-2.3-3.3-3.6-5.6-2.8l-79.3,26.3c-1.2,0.4-1.9,1.8-1.5,3l1.3,3.9
												l0.6-0.2l-1.3-3.9c-0.3-0.9,0.2-1.9,1.1-2.2l79.3-26.3c2-0.7,4.2,0.4,4.8,2.4c0.4,1.1,0.2,2.2-0.4,3.2L444.9,910z"/>
										</g>
									</g>
								</g>
							</g>
						</g>
					</g>
				</g>
			</g>
		</g>
	</g>
	<g>
		<g>
			<g>
				<g>
					<path d="M439.6,903.9l0.4-0.4c-0.1-0.1-2.8-2.9-9.6-3.4c-6.7-0.6-36.4-3.5-36.7-3.5l-0.1,0.6c0.3,0,30,2.9,36.7,3.5
						C436.9,901.2,439.6,903.9,439.6,903.9z"/>
				</g>
			</g>
		</g>
	</g>
</g>
<g>
	<g>
		<path class="st8" d="M218.7,610.7l2.4,42.3l-26.9,5.3c0,0-14.5-25.2-14.6-26.1c-0.1-0.9,14-26.4,16.3-26.8
			C198.2,605.1,218.7,610.7,218.7,610.7z"/>
	</g>
</g>
<g>
	<g>
		<g>
			<g>
				<g>
					<g>
						<g>
							<polygon class="st5" points="295.1,926.3 254.3,922.4 253.8,912.7 253.3,878.3 295.5,883.3 							"/>
						</g>
					</g>
				</g>
			</g>
		</g>
	</g>
</g>
<g>
	<g>
		<g>
			<g>
				<g>
					<g>
						<g>
							<path class="st9" d="M175.9,686.2c0,0,99.6,11.2,113.6,29.1c6.9,8.8,21.4,138,15.6,187.3c0,0-42.4,0.8-55.7-1.5L247.7,770
								l-76.7-23.2l-39.4-60.5L175.9,686.2z"/>
						</g>
					</g>
				</g>
			</g>
		</g>
	</g>
</g>
<g>
	<g>
		<g>
			<path d="M289.2,903.7c-19.3,0-39.6-2.1-39.9-2.1l-0.4,0l-1.4-130.7l0.9,0l1.4,129.9c3.8,0.4,34.7,3.4,55.2,1.5l0.1,0.9
				C300.3,903.5,294.8,903.7,289.2,903.7z"/>
		</g>
	</g>
</g>
<g>
	<g>
		<g>
			<g>
				<g>
					<g>
						<g>
							<path class="st10" d="M173.3,929.2h-36.2V790.5H129v138.7H93.7c-4.9,0-8.9,4-8.9,8.9H129h8.1h45.2
								C182.3,933.2,178.3,929.2,173.3,929.2z"/>
						</g>
					</g>
				</g>
			</g>
		</g>
	</g>
	<g>
		<g>
			<g>
				<g>
					<g>
						<g>
							<path class="st6" d="M28.3,595.6h68.4c8.7,0,16.2,6,18.2,14.5l40.7,177.4l-95.4-10L28.3,595.6z"/>
						</g>
					</g>
				</g>
			</g>
		</g>
	</g>
	<g>
		<g>
			<g>
				<g>
					<g>
						<g>
							<path class="st11" d="M219.1,767.9c0,0-109.5,0-142.1,0c-5.3,0-9.8-3.8-10.7-8.9l-29-157.3c-0.8-4.2-4.9-7-9.1-6
								c-4,0.9-6.5,4.9-5.8,9l32.9,178.1c0.3,1.4,0.9,2.6,1.7,3.6c2.1,3.9,6.3,6.6,11.1,6.6h151.2c6.9,0,12.5-5.6,12.5-12.5l0,0
								C231.6,773.6,226,767.9,219.1,767.9z"/>
						</g>
					</g>
				</g>
			</g>
		</g>
	</g>
	<g>
		<g>
			<g>
				<g>
					<g>
						<g>
							<path class="st10" d="M76.9,769c-5.6,0-10.3-4-11.3-9.4l-29-157.3c-0.3-1.9-1.4-3.5-3-4.6c-1.6-1.1-3.5-1.4-5.4-1
								c-0.3,0.1-0.7-0.1-0.7-0.5c-0.1-0.3,0.1-0.7,0.5-0.7c2.2-0.5,4.5-0.1,6.3,1.2c1.9,1.2,3.1,3.1,3.5,5.4l29,157.3
								c0.9,4.9,5.2,8.4,10.1,8.4c0.3,0,0.6,0.3,0.6,0.6C77.5,768.7,77.3,769,76.9,769z"/>
						</g>
					</g>
				</g>
			</g>
		</g>
	</g>
	<g>
		<g>
			<g>
				<g>
					<g>
						<g>
							<path class="st10" d="M131.3,793.7C131.3,793.7,131.3,793.7,131.3,793.7L72,793.6c-16,1.4-17.9-12.2-18-13l-3.5-19.1
								c-0.1-0.3,0.2-0.7,0.5-0.7c0.3-0.1,0.7,0.2,0.7,0.5l3.5,19.2c0.1,0.5,1.5,13.3,16.7,11.9l0.1,0l59.3,0.1
								c0.3,0,0.6,0.3,0.6,0.6C132,793.5,131.7,793.7,131.3,793.7z"/>
						</g>
					</g>
				</g>
			</g>
		</g>
	</g>
</g>
<g>
	<g>
		<g>
			<path class="st3" d="M108.6,699.9c0,0-15.3,54.2,19.4,66c34.7,11.9,153.4,2.7,153.4,2.7L334.2,903c0,0,36.3-4.9,53.2-27.4
				c0,0-47.4-156.3-67.9-165.8c-20.5-9.6-110.7-19.2-110.7-19.2L108.6,699.9z"/>
		</g>
	</g>
</g>
<g>
	<g>
		<g>
			<path d="M333.5,903.7l-0.1-0.3l-34-86.4l0.8-0.3l33.9,86c3.8-0.7,37.6-7,52.5-27.1l0.7,0.5c-16,21.5-53.1,27.5-53.5,27.5
				L333.5,903.7z"/>
		</g>
	</g>
</g>
<g>
	<g>
		<g>
			<rect x="119.7" y="683" transform="matrix(0.5911 -0.8066 0.8066 0.5911 -498.7024 383.1174)" width="17.6" height="0.9"/>
		</g>
	</g>
</g>
<g>
	<g>
		<g>
			<g>
				<path class="st10" d="M190.2,465.2c8.4,15.4,1.1,68.9,1.1,68.9l-5.2-0.5c-0.1-1.8-0.8-6.9-0.8-6.9l-2.3,6.6l-20.3-2.1l-3-82.5
					C159.8,448.7,181.8,449.8,190.2,465.2z"/>
			</g>
		</g>
	</g>
	<g>
		<g>
			<g>
				<g>
					<path class="st5" d="M179.5,473.5c0,0,12,40.8-10.1,46.9l0.1,28.8l-30.7-6.7l-0.7-92.6c0,0,9.1,1.1,9.1,1.8
						C147.3,452.5,179.5,473.5,179.5,473.5z"/>
				</g>
			</g>
		</g>
	</g>
	<g>
		<g>
			<g>
				<g>
					<path class="st12" d="M169.7,500.9c-0.1,0-0.2-0.1-0.3-0.2c0-0.2,0.1-0.3,0.2-0.3c1.8-0.4,2.9-2.6,3.3-3.4
						c-2.6-1.4-4.2-3.1-4.7-5.3c-0.9-3.5,1.3-6.7,1.4-6.8c0.1-0.1,0.3-0.2,0.4-0.1c0.1,0.1,0.2,0.3,0.1,0.4c0,0-2.1,3.1-1.3,6.4
						c0.5,2,2.1,3.7,4.6,5l0.2,0.1l-0.1,0.2C173.4,497.1,172.2,500.4,169.7,500.9C169.7,500.9,169.7,500.9,169.7,500.9z"/>
				</g>
			</g>
		</g>
	</g>
	<g>
		<g>
			<g>
				<g>
					<path class="st12" d="M169.6,529.2l-0.1-8.8c0,0-14.9-0.8-24-6.4C145.5,514,157.9,525.8,169.6,529.2z"/>
				</g>
			</g>
		</g>
	</g>
	<g>
		<g>
			<g>
				<g>
					<path d="M162.5,488.8c0,0.9-0.7,1.6-1.6,1.6c-0.9,0-1.6-0.7-1.6-1.6c0-0.9,0.7-1.6,1.6-1.6C161.8,487.3,162.5,488,162.5,488.8z
						"/>
				</g>
			</g>
		</g>
	</g>
	<g>
		<g>
			<g>
				<g>
					<path d="M178.3,489.2c0,0.9-0.7,1.6-1.6,1.6c-0.9,0-1.6-0.7-1.6-1.6c0-0.9,0.7-1.6,1.6-1.6
						C177.6,487.7,178.3,488.3,178.3,489.2z"/>
				</g>
			</g>
		</g>
	</g>
	<g>
		<g>
			<g>
				<g>
					<path class="st13" d="M157.5,500.3c0.2,0,10.2,4.3,10.2,4.3s-3.1,3.6-6.9,2C157.1,505,157.5,500.3,157.5,500.3z"/>
				</g>
			</g>
		</g>
	</g>
	<g>
		<g>
			<g>
				<path class="st10" d="M169,458.4c0,0-4,19.1-21.9,26.7c-17.9,7.6-7.3,31.6-7.3,31.6l-17.3-25.5c0,0,0.3-34.4,15.7-41.3
					C149.3,444.9,170.8,447.6,169,458.4z"/>
			</g>
		</g>
	</g>
	<g>
		<g>
			<g>
				<g>
					<g>
						<path class="st10" d="M156.1,483.2c0.2,0.1,0.4,0.1,0.5,0c0,0,4.1-2.4,8.1-1c0.3,0.1,0.6-0.1,0.7-0.3c0.1-0.3-0.1-0.6-0.3-0.7
							c-4.5-1.5-8.8,1-9,1.1c-0.3,0.2-0.3,0.5-0.2,0.8C155.9,483.1,156,483.2,156.1,483.2z"/>
					</g>
				</g>
			</g>
		</g>
	</g>
	<g>
		<g>
			<g>
				<g>
					<g>
						<path class="st10" d="M180,485.2c0.2,0,0.4,0,0.5-0.2c0.2-0.2,0.2-0.6,0-0.8c-0.2-0.1-3.9-3.4-8.6-2.7c-0.3,0-0.5,0.3-0.5,0.6
							c0,0.3,0.3,0.5,0.6,0.5c4.2-0.6,7.7,2.4,7.7,2.5C179.8,485.2,179.9,485.2,180,485.2z"/>
					</g>
				</g>
			</g>
		</g>
	</g>
	<g>
		<g>
			<g>
				<polygon class="st5" points="167.8,465.8 160.2,458.7 165.9,466.9 				"/>
			</g>
		</g>
	</g>
	<g>
		<g>
			<g>
				<path class="st10" d="M148.5,480.9c-0.4,0.1-0.7-0.1-0.8-0.5c-0.1-0.4,0.1-0.8,0.5-0.9c10.2-2.9,13.5-12.7,13.5-12.7
					c0.1-0.4,0.5-0.6,0.9-0.5c0.4,0.1,0.6,0.5,0.5,0.9C162.9,467.6,159.5,477.8,148.5,480.9C148.5,480.9,148.5,480.9,148.5,480.9z"
					/>
			</g>
		</g>
	</g>
	<g>
		<g>
			<g>
				<path class="st10" d="M117.6,471.4c4.2-19.5,25.6-23.1,25.6-23.1l-0.7,38c0,0-4,16.6-2,41.2l0.5,4.6c0,0-7.8-0.4-16.6-2.2
					c-0.6-3.6-1.7-9.5-1.7-9.5l-2.3,8.6c-2-0.5-3.9-1-5.8-1.6C114.6,527.5,114.2,487.2,117.6,471.4z"/>
			</g>
		</g>
	</g>
	<g>
		<g>
			<g>
				<g>
					<g>
						
							<ellipse transform="matrix(0.9999 -1.194097e-02 1.194097e-02 0.9999 -5.8787 1.6659)" class="st5" cx="136.6" cy="493.1" rx="8.8" ry="8.8"/>
					</g>
				</g>
			</g>
		</g>
		<g>
			<g>
				<g>
					<g>
						<path class="st12" d="M136,498.5c-1.8,0-3.1-1.4-3.5-2.7c-0.5-1.6,0-3.2,1.4-4.1c1.9-1.2,3.6-0.5,4.5,0.1
							c-0.4-0.9-1-1.6-1.7-2c-1.7-0.9-3.8-0.2-3.9-0.2c-0.1,0.1-0.3,0-0.4-0.2c-0.1-0.1,0-0.3,0.2-0.4c0.1,0,2.4-0.8,4.3,0.3
							c1.1,0.6,1.9,1.7,2.3,3.2l0.3,1l-0.7-0.7c-0.1-0.1-2.2-2.1-4.6-0.5c-1.3,0.8-1.4,2.4-1.1,3.4c0.3,1.1,1.3,2.4,3,2.3
							c0.2,0,0.3,0.1,0.3,0.3C136.3,498.4,136.2,498.5,136,498.5C136,498.5,136,498.5,136,498.5z"/>
					</g>
				</g>
			</g>
		</g>
	</g>
</g>
<g>
	<g>
		<g>
			<rect x="120" y="692.7" transform="matrix(0.5116 -0.8592 0.8592 0.5116 -533.5936 447.4821)" width="13.7" height="0.9"/>
		</g>
	</g>
</g>
<g>
	<g>
		<g>
			<path d="M204.6,771.8c-28,0-60.7-1-76.8-5.4c-13.1-3.5-20.9-15.3-22.5-34c-1.2-14,1.4-27.2,1.4-27.3l1.2,0.2
				c0,0.1-2.6,13.2-1.4,27c1.6,18.4,8.9,29.5,21.7,33c30.9,8.3,124.1,4.4,125,4.4l0.1,1.2C252.8,770.9,230.8,771.8,204.6,771.8z"/>
		</g>
	</g>
</g>
<g>
	<g>
		<path class="st7" d="M200,667.5l-2-46.9c6,1.2,15.8-3.1,23.1-7c-1.7-33.4-15.5-65.7-23.9-70.4c-3-1.7-7.4-3.2-12.9-4.3
			c-4.1-0.8-10,1.5-15,1c-14.5-1.5-30.5-4.6-44.8-3.4c-11,0.9-20.3,2.5-25,4.9C82.2,550.1,62,592,54.8,613.5
			c0,0,17.7,15.5,40.5,16.1l10.3-22.9l1.5,100.6l54.2-1.6l20.2-2.5l13.4-3.2l10.4-4.8l3.6-3.6c0,0,0.1-7.5,0-21.7
			C199.7,670.8,200,667.5,200,667.5z"/>
	</g>
</g>
<g>
	<g>
		<g>
			<g>
				<g>
					<path class="st10" d="M99.9,620.6c-24.8-3.9-39.6-18.7-39.7-18.9l0.9-0.8c0.1,0.1,14.6,14.7,39,18.5L99.9,620.6z"/>
				</g>
			</g>
		</g>
	</g>
</g>
<g>
	<g>
		<g>
			<g>
				<g>
					<path class="st5" d="M209.7,666l-6.8-10.6h0c-3.7-6.1-9.8-14-16.1-14.7c-10.3-1.1-73-3.7-92.9-6.2l1.7-4.7c0,0.2-15-2.5-15-2.5
						l-10.4-4.3l-10-5.6c-2.6,10-10.4,29.4-3.2,40.9c13.3,21.1,115.3,10.7,124.3,8l8.3,9l1.7,2.6c0.8,1.2,2.5,1.6,3.7,0.8
						c1.2-0.8,1.6-2.5,0.8-3.7l0.7,1.1c0.8,1.2,2.5,1.6,3.7,0.8l0,0c1.2-0.8,1.6-2.5,0.8-3.7c0.8,1.2,2.5,1.6,3.7,0.8
						c1.2-0.8,1.6-2.5,0.8-3.7l-0.7-1.1c0.8,1.2,2.5,1.6,3.7,0.8h0c0,0,0.1-0.1,0.1-0.1c0,0,0,0,0,0c0,0,0,0,0.1-0.1c0,0,0,0,0,0
						c0,0,0,0,0,0c0.2-0.1,0.3-0.3,0.4-0.5C210.7,667.6,209.7,666,209.7,666z"/>
				</g>
			</g>
		</g>
	</g>
</g>
<g>
	<g>
		<g>
			<g>
				<g>
					<path class="st10" d="M95.6,630.4l-0.4,0c-20.3-0.5-40.6-16-40.8-16.2l-0.4-0.3l12.8-28.5l1.1,0.5l-12.5,27.6
						c2.8,2.1,21.1,15.1,39.3,15.7l5.5-11.2l1.1,0.5L95.6,630.4z"/>
				</g>
			</g>
		</g>
	</g>
</g>
<g>
	<g>
		<g>
			<g>
				<g>
					<path class="st12" d="M86.8,644.4c-0.1,0-0.2,0-0.3-0.1c-0.2-0.1-0.2-0.4-0.1-0.6l7.3-9.4c0.1-0.2,0.4-0.2,0.6-0.1
						c0.2,0.1,0.2,0.4,0.1,0.6l-7.3,9.4C87,644.3,86.9,644.4,86.8,644.4z"/>
				</g>
			</g>
		</g>
	</g>
</g>
<g>
	<g>
		<g>
			<g>
				<g>
					<path class="st12" d="M206,670.8c-0.2,0-0.3,0-0.4-0.2l-9.6-13.1c-0.1-0.2-0.1-0.4,0.1-0.6c0.2-0.1,0.4-0.1,0.6,0.1l9.6,13.1
						c0.1,0.2,0.1,0.4-0.1,0.6C206.1,670.7,206,670.8,206,670.8z"/>
				</g>
			</g>
		</g>
	</g>
</g>
<g>
	<g>
		<g>
			<g>
				<g>
					<path class="st12" d="M201.8,674.6c-0.2,0-0.3,0-0.4-0.2l-9.1-13.5c-0.1-0.2-0.1-0.4,0.1-0.6c0.2-0.1,0.4-0.1,0.6,0.1L202,674
						c0.1,0.2,0.1,0.4-0.1,0.6C201.9,674.6,201.9,674.6,201.8,674.6z"/>
				</g>
			</g>
		</g>
	</g>
</g>
<g>
	<g>
		<g>
			<g>
				<g>
					<path class="st12" d="M196.7,677.1c-0.2,0-0.3,0-0.4-0.2l-7.6-11.5c-0.1-0.2-0.1-0.4,0.1-0.6c0.2-0.1,0.4-0.1,0.6,0.1l7.6,11.5
						c0.1,0.2,0.1,0.4-0.1,0.6C196.8,677,196.8,677,196.7,677.1z"/>
				</g>
			</g>
		</g>
	</g>
</g>
<g>
	<path class="st10" d="M202.1,633.9H201v-37l0-0.1c8.1-19.3-6.4-26.3-7-26.6l0.5-1.1c0.2,0.1,16.1,7.8,7.6,28V633.9z"/>
</g>
<g>
	<g>
		<g>
			<g>
				<polygon class="st10" points="101.5,618.5 119.6,575.7 118.5,575.3 99.6,619.4 				"/>
			</g>
		</g>
	</g>
</g>
<g>
	<g>
		<g>
			<g>
				<g>
					<polygon class="st14" points="306.7,585.4 211.3,585.4 178,670.2 273.4,670.2 					"/>
				</g>
			</g>
		</g>
		<g>
			<g>
				<g>
					<polygon class="st15" points="178,670.2 183,670.2 216.3,585.4 211.3,585.4 					"/>
				</g>
			</g>
		</g>
		<g>
			<g>
				<g>
					<path class="st6" d="M244.3,625.1c-1.3,3.9-0.4,7.7,2.2,8.6c2.5,0.9,5.6-1.6,7-5.5c1.3-3.9,0.4-7.7-2.2-8.6
						C248.8,618.8,245.6,621.2,244.3,625.1z"/>
				</g>
			</g>
		</g>
	</g>
	<g>
		<g>
			<g>
				<path class="st15" d="M146.5,663.3h35.6v6.8h-35.6c-1.9,0-3.4-1.5-3.4-3.4l0,0C143,664.9,144.6,663.3,146.5,663.3z"/>
			</g>
		</g>
	</g>
	<g>
		<g>
			<g>
				
					<rect x="155.5" y="665.7" transform="matrix(-1 -1.224647e-16 1.224647e-16 -1 333.5062 1332.4646)" class="st14" width="22.5" height="1.1"/>
			</g>
		</g>
	</g>
</g>
<g>
	<g>
		<g>
			<path d="M167.2,705.2l-1.7-0.5c38.5-3.1,42.7-13.1,42.7-13.2l0.2-15.5l1,0l-0.2,15.6C209.1,692.1,206.4,702,167.2,705.2z"/>
		</g>
	</g>
</g>
<g>
	<g>
		<rect x="175.9" y="676.4" class="st7" width="29.2" height="5.9"/>
	</g>
</g>
<g>
	<g>
		<rect x="106.5" y="672.2" width="1" height="33"/>
	</g>
</g>
<g>
	<g>
		<g>
			<path class="st6" d="M252.6,929.8H289l14.7-16l26.9,16h5.8c2,0,3.8,1.4,4.2,3.3c0.5,2.6-1.5,5-4.1,5h-84.5
				c-0.6,0-1.1-0.5-1.1-1.1v-5.5C251,930.6,251.7,929.8,252.6,929.8z"/>
		</g>
	</g>
	<g>
		<g>
			<path class="st7" d="M253,929.9V915c0,0,6.1-8.2,15.4-4c0,0,14.1,10,26.5-2.1l30.8,13.7c0,0,8.5,2.8,10.7,7.4H253z"/>
		</g>
	</g>
	<g>
		<g>
			<g>
				<g>
					<rect x="252.7" y="915" width="0.6" height="14.8"/>
				</g>
			</g>
		</g>
	</g>
	<g>
		<g>
			<g>
				<g>
					<path d="M281,915.1c1.2,0,1.9-0.1,1.9-0.1l-0.1-0.6c-0.1,0-7.4,1-14.3-3.7l-0.4,0.5C273.2,914.6,278.3,915.1,281,915.1z"/>
				</g>
			</g>
		</g>
	</g>
	<g>
		<g>
			<g>
				<g>
					<rect x="258.4" y="923.1" transform="matrix(0.5582 -0.8297 0.8297 0.5582 -653.6148 623.5031)" width="0.6" height="4.8"/>
				</g>
			</g>
		</g>
	</g>
	<g>
		<g>
			<g>
				<g>
					<rect x="261.2" y="922.4" transform="matrix(0.5592 -0.8291 0.8291 0.5592 -651.401 624.4733)" width="0.6" height="4.8"/>
				</g>
			</g>
		</g>
	</g>
	<g>
		<g>
			<g>
				<g>
					<g>
						<g>
							<g>
								<g>
									<g>
										<g>
											<path d="M339.5,937.4c1-0.8,1.6-2.1,1.6-3.4c0-2.5-2-4.4-4.4-4.4h-83.5c-1.3,0-2.4,1.1-2.4,2.4v4.1h0.6v-4.1
												c0-1,0.8-1.8,1.8-1.8h83.5c2.1,0,3.8,1.7,3.8,3.8c0,1.1-0.5,2.2-1.4,2.9L339.5,937.4z"/>
										</g>
									</g>
								</g>
							</g>
						</g>
					</g>
				</g>
			</g>
		</g>
	</g>
	<g>
		<g>
			<g>
				<g>
					<path d="M336.3,930l0.6-0.3c-0.1-0.1-1.8-3.6-8.1-6.3c-6.2-2.6-33.5-14.8-33.8-14.9l-0.3,0.6c0.3,0.1,27.6,12.2,33.8,14.9
						C334.6,926.6,336.3,930,336.3,930z"/>
				</g>
			</g>
		</g>
	</g>
</g>
<g>
	<g>
		<g>
			<g>
				<g>
					<g>
						<polygon class="st10" points="67.7,938.1 59.8,938.1 74,670.2 89.7,670.2 						"/>
					</g>
				</g>
			</g>
		</g>
	</g>
	<g>
		<g>
			<g>
				<g>
					<rect x="78" y="704.7" class="st10" width="253.2" height="5.1"/>
				</g>
			</g>
		</g>
		<g>
			<g>
				<g>
					<rect x="74.6" y="806.7" class="st10" width="264" height="5.1"/>
				</g>
			</g>
		</g>
		<g>
			<g>
				<g>
					<g>
						<g>
							<polygon class="st10" points="337.8,938.1 345.7,938.1 331.5,670.2 315.8,670.2 							"/>
						</g>
					</g>
				</g>
			</g>
		</g>
		<g>
			<g>
				<g>
					<g>
						<g>
							<path class="st10" d="M370.5,676.4H42.2c-0.8,0-1.4-0.6-1.4-1.4v-5.6c0-0.8,0.6-1.4,1.4-1.4h328.3c0.8,0,1.4,0.6,1.4,1.4v5.6
								C371.9,675.7,371.2,676.4,370.5,676.4z"/>
						</g>
					</g>
				</g>
			</g>
		</g>
	</g>
</g>
<g>
	<path class="st5" d="M124.6,536.3c0,0,11.1,12.3,31.6,13.4c20.5,1.2,28.1-11,28.1-11S154.8,533.9,124.6,536.3z"/>
</g>
<g>
	<g>
		<g>
			<g>
				<path class="st6" d="M380.4,493.2H260.2c-3.8,0-7,3.1-7,7v58.2c0,3.8,3.1,7,7,7h10.2l-4.7,12.7l18.4-12.7h96.2c3.8,0,7-3.1,7-7
					v-58.2C387.3,496.3,384.2,493.2,380.4,493.2z"/>
			</g>
		</g>
	</g>
	<g>
		<g>
			<g>
				<g>
					<g>
						<path class="st0" d="M374.7,538.6H262.9c-0.8,0-1.4-0.6-1.4-1.4s0.6-1.4,1.4-1.4h111.8c0.8,0,1.4,0.6,1.4,1.4
							S375.5,538.6,374.7,538.6z"/>
					</g>
				</g>
			</g>
		</g>
		<g>
			<g>
				<g>
					<g>
						<path class="st0" d="M335.6,506.7h-72.7c-0.8,0-1.4-0.6-1.4-1.4c0-0.8,0.6-1.4,1.4-1.4h72.7c0.8,0,1.4,0.6,1.4,1.4
							C337,506.1,336.3,506.7,335.6,506.7z"/>
					</g>
				</g>
			</g>
		</g>
		<g>
			<g>
				<g>
					<g>
						<path class="st0" d="M294.3,554.5h-31.4c-0.8,0-1.4-0.6-1.4-1.4c0-0.8,0.6-1.4,1.4-1.4h31.4c0.8,0,1.4,0.6,1.4,1.4
							C295.7,553.9,295.1,554.5,294.3,554.5z"/>
					</g>
				</g>
			</g>
		</g>
		<g>
			<g>
				<g>
					<g>
						<path class="st0" d="M374.7,554.5h-70.6c-0.8,0-1.4-0.6-1.4-1.4c0-0.8,0.6-1.4,1.4-1.4h70.6c0.8,0,1.4,0.6,1.4,1.4
							C376.2,553.9,375.5,554.5,374.7,554.5z"/>
					</g>
				</g>
			</g>
		</g>
		<g>
			<g>
				<g>
					<g>
						<path class="st0" d="M375.6,506.7h-29c-0.8,0-1.4-0.6-1.4-1.4c0-0.8,0.6-1.4,1.4-1.4h29c0.8,0,1.4,0.6,1.4,1.4
							C377,506.1,376.4,506.7,375.6,506.7z"/>
					</g>
				</g>
			</g>
		</g>
		<g>
			<g>
				<g>
					<g>
						<path class="st0" d="M308.6,522.7h-45.7c-0.8,0-1.4-0.6-1.4-1.4s0.6-1.4,1.4-1.4h45.7c0.8,0,1.4,0.6,1.4,1.4
							S309.4,522.7,308.6,522.7z"/>
					</g>
				</g>
			</g>
		</g>
		<g>
			<g>
				<g>
					<g>
						<path class="st0" d="M375.6,522.7h-56.8c-0.8,0-1.4-0.6-1.4-1.4s0.6-1.4,1.4-1.4h56.8c0.8,0,1.4,0.6,1.4,1.4
							S376.4,522.7,375.6,522.7z"/>
					</g>
				</g>
			</g>
		</g>
	</g>
</g>
<g>
	<g>
		<g>
			<g>
				<polygon class="st7" points="323.2,622.5 323.4,622.5 338.5,622.5 334.7,667.6 323.4,667.6 323.2,667.6 311.5,667.6 
					308.1,622.5 				"/>
			</g>
		</g>
	</g>
	<g>
		<g>
			<g>
				<path class="st10" d="M312.1,614.6h11.1h0.1h11.1c1.3,0,2.4,1.1,2.4,2.4h-13.5h-0.1h-13.5C309.8,615.6,310.8,614.6,312.1,614.6z
					"/>
			</g>
		</g>
	</g>
	<g>
		<g>
			<g>
				<path class="st3" d="M308.4,618.2c0.1-0.7,0.8-1.2,1.5-1.2h13.3h0.1h13.3c0.7,0,1.3,0.5,1.5,1.2l1.3,6c0.2,1-0.5,1.9-1.5,1.9
					h-14.6h-0.1h-14.6c-1,0-1.7-0.9-1.5-1.9L308.4,618.2z"/>
			</g>
		</g>
	</g>
	<g>
		<g>
			<g>
				<polygon class="st3" points="337.7,636.3 336.8,654.6 323.4,654.6 323.2,654.6 309.8,654.6 308.8,636.3 323.2,636.3 
					323.4,636.3 				"/>
			</g>
		</g>
	</g>
	<g>
		<g>
			<g>
				<path class="st6" d="M315.4,645.5c0,4,3.2,7.2,7.1,7.2c3.9,0,7.1-3.2,7.1-7.2c0-4-3.2-7.2-7.1-7.2
					C318.6,638.3,315.4,641.5,315.4,645.5z"/>
			</g>
		</g>
	</g>
	<g>
		<g>
			<g>
				<path class="st10" d="M309.8,655.1h27.4l1-18.7c0-0.2-0.2-0.5-0.4-0.5c-0.2,0-0.5,0.2-0.5,0.4l-1,17.9h-26.5
					c-0.2,0-0.4,0.2-0.4,0.4C309.4,654.9,309.6,655.1,309.8,655.1z"/>
			</g>
		</g>
	</g>
	<g>
		<g>
			<g>
				<g>
					<path class="st10" d="M316.1,632c0.1,0,0.1,0,0.2-0.1c0.2-0.1,0.3-0.4,0.2-0.6l-2.6-4.6c-0.1-0.2-0.4-0.3-0.6-0.2
						c-0.2,0.1-0.3,0.4-0.2,0.6l2.6,4.6C315.8,631.9,316,632,316.1,632z"/>
				</g>
			</g>
		</g>
		<g>
			<g>
				<g>
					<path class="st10" d="M315.7,634.6c0.1,0,0.2,0,0.2-0.1c0.2-0.1,0.3-0.4,0.2-0.6l-2.4-4c-0.1-0.2-0.4-0.3-0.6-0.2
						c-0.2,0.1-0.3,0.4-0.2,0.6l2.4,4C315.4,634.6,315.5,634.6,315.7,634.6z"/>
				</g>
			</g>
		</g>
	</g>
</g>
<g>
	<path class="st6" d="M736.9,334.6H471.5c-19.1,0-34.6-15.5-34.6-34.6v-23.1c0-19.1,15.5-34.6,34.6-34.6h265.4
		c19.1,0,34.6,15.5,34.6,34.6V300C771.5,319.1,756,334.6,736.9,334.6z"/>
</g>
<g>
	<path class="st6" d="M744.2,854.3H464.1c-15,0-27.2-12.2-27.2-27.2V609.6c0-15,12.2-27.2,27.2-27.2h280.1c15,0,27.2,12.2,27.2,27.2
		v217.5C771.5,842.1,759.3,854.3,744.2,854.3z"/>
</g>
<g>
	<path class="st6" d="M744.2,555.6H464.1c-15,0-27.2-12.2-27.2-27.2V387.2c0-15,12.2-27.2,27.2-27.2h280.1c15,0,27.2,12.2,27.2,27.2
		v141.2C771.5,543.4,759.3,555.6,744.2,555.6z"/>
</g>
<g>
	<g>
		<path class="st0" d="M709.9,266.8c-12.6,0-22.9,10.2-22.9,22.9c0,12.6,10.2,22.9,22.9,22.9c12.6,0,22.9-10.2,22.9-22.9
			C732.7,277,722.5,266.8,709.9,266.8z M709.9,309.2c-10.8,0-19.5-8.7-19.5-19.5c0-10.8,8.7-19.5,19.5-19.5s19.5,8.7,19.5,19.5
			C729.4,300.4,720.6,309.2,709.9,309.2z"/>
	</g>
	<g>
		<g>
			<path class="st0" d="M722.6,291.1h-14.6v-15.6c0-0.5,0.4-0.9,0.9-0.9c0.5,0,0.9,0.4,0.9,0.9v13.8h12.8c0.5,0,0.9,0.4,0.9,0.9
				C723.5,290.7,723.1,291.1,722.6,291.1z"/>
		</g>
	</g>
</g>
<g>
	<g>
		<path class="st0" d="M479.3,632.4c-12.6,0-22.9,10.2-22.9,22.9c0,12.6,10.2,22.9,22.9,22.9c12.6,0,22.9-10.2,22.9-22.9
			C502.1,642.6,491.9,632.4,479.3,632.4z M479.3,674.8c-10.8,0-19.5-8.7-19.5-19.5c0-10.8,8.7-19.5,19.5-19.5
			c10.8,0,19.5,8.7,19.5,19.5C498.8,666,490.1,674.8,479.3,674.8z"/>
	</g>
	<g>
		<g>
			<path class="st0" d="M492,656.6h-14.6V641c0-0.5,0.4-0.9,0.9-0.9c0.5,0,0.9,0.4,0.9,0.9v13.8H492c0.5,0,0.9,0.4,0.9,0.9
				C492.9,656.2,492.5,656.6,492,656.6z"/>
		</g>
	</g>
</g>
<g>
	<path class="st0" d="M654.2,281.1H477.8c-1.6,0-2.9-1.3-2.9-2.9V277c0-1.6,1.3-2.9,2.9-2.9h176.4c1.6,0,2.9,1.3,2.9,2.9v1.2
		C657.1,279.8,655.8,281.1,654.2,281.1z"/>
</g>
<g>
	<path class="st0" d="M654.2,302.9H477.8c-1.6,0-2.9-1.3-2.9-2.9v-1.2c0-1.6,1.3-2.9,2.9-2.9h176.4c1.6,0,2.9,1.3,2.9,2.9v1.2
		C657.1,301.6,655.8,302.9,654.2,302.9z"/>
</g>
<g>
	<path class="st0" d="M594.3,649.6h-83.8c-0.8,0-1.5-0.7-1.5-1.5v-0.6c0-0.8,0.7-1.5,1.5-1.5h83.8c0.8,0,1.5,0.7,1.5,1.5v0.6
		C595.8,648.9,595.1,649.6,594.3,649.6z"/>
</g>
<g>
	<path class="st0" d="M594.3,664.4h-83.8c-0.8,0-1.5-0.7-1.5-1.5v-0.6c0-0.8,0.7-1.5,1.5-1.5h83.8c0.8,0,1.5,0.7,1.5,1.5v0.6
		C595.8,663.7,595.1,664.4,594.3,664.4z"/>
</g>
<g>
	<path class="st0" d="M594.3,727.6h-83.8c-0.8,0-1.5-0.7-1.5-1.5v-0.6c0-0.8,0.7-1.5,1.5-1.5h83.8c0.8,0,1.5,0.7,1.5,1.5v0.6
		C595.8,727,595.1,727.6,594.3,727.6z"/>
</g>
<g>
	<path class="st0" d="M594.3,742.4h-83.8c-0.8,0-1.5-0.7-1.5-1.5v-0.6c0-0.8,0.7-1.5,1.5-1.5h83.8c0.8,0,1.5,0.7,1.5,1.5v0.6
		C595.8,741.8,595.1,742.4,594.3,742.4z"/>
</g>
<g>
	<path class="st0" d="M594.3,802.5h-83.8c-0.8,0-1.5-0.7-1.5-1.5v-0.6c0-0.8,0.7-1.5,1.5-1.5h83.8c0.8,0,1.5,0.7,1.5,1.5v0.6
		C595.8,801.8,595.1,802.5,594.3,802.5z"/>
</g>
<g>
	<path class="st0" d="M594.3,817.3h-83.8c-0.8,0-1.5-0.7-1.5-1.5v-0.6c0-0.8,0.7-1.5,1.5-1.5h83.8c0.8,0,1.5,0.7,1.5,1.5v0.6
		C595.8,816.6,595.1,817.3,594.3,817.3z"/>
</g>
<g>
	<g>
		<g>
			<path class="st0" d="M482.3,319.1c0,2.1-1.7,3.8-3.8,3.8c-2.1,0-3.8-1.7-3.8-3.8s1.7-3.8,3.8-3.8
				C480.6,315.3,482.3,317,482.3,319.1z"/>
		</g>
	</g>
	<g>
		<g>
			<path class="st0" d="M493.9,319.1c0,2.1-1.7,3.8-3.8,3.8c-2.1,0-3.8-1.7-3.8-3.8s1.7-3.8,3.8-3.8
				C492.3,315.3,493.9,317,493.9,319.1z"/>
		</g>
	</g>
	<g>
		<g>
			<path class="st0" d="M505.6,319.1c0,2.1-1.7,3.8-3.8,3.8c-2.1,0-3.8-1.7-3.8-3.8s1.7-3.8,3.8-3.8
				C503.9,315.3,505.6,317,505.6,319.1z"/>
		</g>
	</g>
</g>
<g>
	<g>
		<g>
			<path class="st0" d="M461.7,597.6c0,2.1-1.7,3.8-3.8,3.8c-2.1,0-3.8-1.7-3.8-3.8c0-2.1,1.7-3.8,3.8-3.8
				C460,593.8,461.7,595.5,461.7,597.6z"/>
		</g>
	</g>
	<g>
		<g>
			<path class="st0" d="M473.3,597.6c0,2.1-1.7,3.8-3.8,3.8c-2.1,0-3.8-1.7-3.8-3.8c0-2.1,1.7-3.8,3.8-3.8
				C471.6,593.8,473.3,595.5,473.3,597.6z"/>
		</g>
	</g>
	<g>
		<g>
			<path class="st0" d="M484.9,597.6c0,2.1-1.7,3.8-3.8,3.8c-2.1,0-3.8-1.7-3.8-3.8c0-2.1,1.7-3.8,3.8-3.8
				C483.2,593.8,484.9,595.5,484.9,597.6z"/>
		</g>
	</g>
</g>
<g>
	<g>
		<path class="st0" d="M487.4,401.3h-39.9V377h39.9V401.3z M448.8,399.9H486v-21.4h-37.1V399.9z"/>
	</g>
	<g>
		<path class="st0" d="M533,401.3H493V377H533V401.3z M494.4,399.9h37.1v-21.4h-37.1V399.9z"/>
	</g>
	<g>
		<rect x="539.3" y="377.7" class="st0" width="38.5" height="22.8"/>
	</g>
	<g>
		<rect x="584.9" y="377.7" class="st0" width="38.5" height="22.8"/>
	</g>
	<g>
		<rect x="630.5" y="377.7" class="st0" width="38.5" height="22.8"/>
	</g>
	<g>
		<rect x="676.1" y="377.7" class="st0" width="38.5" height="22.8"/>
	</g>
	<g>
		<rect x="721.7" y="377.7" class="st0" width="38.5" height="22.8"/>
	</g>
</g>
<g>
	<g>
		<rect x="448.1" y="407.7" class="st0" width="38.5" height="22.8"/>
	</g>
	<g>
		<rect x="493.7" y="407.7" class="st0" width="38.5" height="22.8"/>
	</g>
	<g>
		<rect x="539.3" y="407.7" class="st0" width="38.5" height="22.8"/>
	</g>
	<g>
		<rect x="584.9" y="407.7" class="st0" width="38.5" height="22.8"/>
	</g>
	<g>
		<rect x="630.5" y="407.7" class="st0" width="38.5" height="22.8"/>
	</g>
	<g>
		<rect x="676.1" y="407.7" class="st0" width="38.5" height="22.8"/>
	</g>
	<g>
		<rect x="721.7" y="407.7" class="st0" width="38.5" height="22.8"/>
	</g>
</g>
<g>
	<g>
		<rect x="448.1" y="437.6" class="st0" width="38.5" height="22.8"/>
	</g>
	<g>
		<rect x="493.7" y="437.6" class="st0" width="38.5" height="22.8"/>
	</g>
	<g>
		<rect x="539.3" y="437.6" class="st0" width="38.5" height="22.8"/>
	</g>
	<g>
		<rect x="584.9" y="437.6" class="st0" width="38.5" height="22.8"/>
	</g>
	<g>
		<rect x="630.5" y="437.6" class="st0" width="38.5" height="22.8"/>
	</g>
	<g>
		<rect x="676.1" y="437.6" class="st0" width="38.5" height="22.8"/>
	</g>
	<g>
		<rect x="721.7" y="437.6" class="st0" width="38.5" height="22.8"/>
	</g>
</g>
<g>
	<g>
		<rect x="448.1" y="467.5" class="st0" width="38.5" height="22.8"/>
	</g>
	<g>
		<rect x="493.7" y="467.5" class="st0" width="38.5" height="22.8"/>
	</g>
	<g>
		<rect x="539.3" y="467.5" class="st0" width="38.5" height="22.8"/>
	</g>
	<g>
		<rect x="584.9" y="467.5" class="st0" width="38.5" height="22.8"/>
	</g>
	<g>
		<rect x="630.5" y="467.5" class="st0" width="38.5" height="22.8"/>
	</g>
	<g>
		<rect x="676.1" y="467.5" class="st0" width="38.5" height="22.8"/>
	</g>
	<g>
		<rect x="721.7" y="467.5" class="st0" width="38.5" height="22.8"/>
	</g>
</g>
<g>
	<g>
		<rect x="448.1" y="497.4" class="st0" width="38.5" height="22.8"/>
	</g>
	<g>
		<rect x="493.7" y="497.4" class="st0" width="38.5" height="22.8"/>
	</g>
	<g>
		<rect x="539.3" y="497.4" class="st0" width="38.5" height="22.8"/>
	</g>
	<g>
		<rect x="584.9" y="497.4" class="st0" width="38.5" height="22.8"/>
	</g>
	<g>
		<path class="st0" d="M669.7,520.9h-39.9v-24.2h39.9V520.9z M631.2,519.5h37.1v-21.4h-37.1V519.5z"/>
	</g>
	<g>
		<path class="st0" d="M715.3,520.9h-39.9v-24.2h39.9V520.9z M676.8,519.5h37.1v-21.4h-37.1V519.5z"/>
	</g>
	<g>
		<path class="st0" d="M760.9,520.9H721v-24.2h39.9V520.9z M722.4,519.5h37.1v-21.4h-37.1V519.5z"/>
	</g>
</g>
<g>
	<g>
		<g>
			<path class="st7" d="M557.7,486.1l-11.3-16.9c-0.3-0.4-0.2-0.9,0.2-1.2c0.4-0.3,0.9-0.2,1.2,0.2l9.5,14.2l12.1-31
				c0.2-0.4,0.7-0.6,1.1-0.5c0.4,0.2,0.6,0.7,0.5,1.1L557.7,486.1z"/>
		</g>
	</g>
</g>
<g>
	<g>
		<g>
			<path class="st7" d="M603.2,426.5l-11.3-16.9c-0.3-0.4-0.2-0.9,0.2-1.2c0.4-0.3,0.9-0.2,1.2,0.2l9.5,14.2l12.1-31
				c0.2-0.4,0.7-0.6,1.1-0.5c0.4,0.2,0.6,0.7,0.5,1.1L603.2,426.5z"/>
		</g>
	</g>
</g>
<g>
	<g>
		<g>
			<path class="st7" d="M694.4,486.9L683.1,470c-0.3-0.4-0.2-0.9,0.2-1.2c0.4-0.3,0.9-0.2,1.2,0.2l9.5,14.2l12.1-31
				c0.2-0.4,0.7-0.6,1.1-0.5c0.4,0.2,0.6,0.7,0.5,1.1L694.4,486.9z"/>
		</g>
	</g>
</g>
<g>
	<g>
		<g>
			<path class="st7" d="M473.9,511.7l-11.3-16.9c-0.3-0.4-0.2-0.9,0.2-1.2c0.4-0.3,0.9-0.2,1.2,0.2l9.5,14.2l12.1-31
				c0.2-0.4,0.7-0.6,1.1-0.5c0.4,0.2,0.6,0.7,0.5,1.1L473.9,511.7z"/>
		</g>
	</g>
</g>
<g>
	<g>
		<g>
			<path class="st7" d="M559.3,448.1l-11.3-16.9c-0.3-0.4-0.2-0.9,0.2-1.2c0.4-0.3,0.9-0.2,1.2,0.2l9.5,14.2l12.1-31
				c0.2-0.4,0.7-0.6,1.1-0.5c0.4,0.2,0.6,0.7,0.5,1.1L559.3,448.1z"/>
		</g>
	</g>
</g>
<g>
	<path class="st0" d="M751.8,854.3H604.2V582.4h147.7c10.9,0,19.7,8.8,19.7,19.7v232.6C771.5,845.5,762.7,854.3,751.8,854.3z"/>
</g>
<g>
	<path class="st0" d="M481.2,709.4c-8.8,0-15.9,7.1-15.9,16c0,2.1,1.2,6,1.2,6c0.4,0.9,14.7,28.6,14.7,28.6l15-29
		c0.6-1.7,1-3.6,1-5.5C497.1,716.5,490,709.4,481.2,709.4z M481.2,733.2c-4.8,0-8.6-3.9-8.6-8.6s3.9-8.6,8.6-8.6
		c4.8,0,8.6,3.9,8.6,8.6S485.9,733.2,481.2,733.2z"/>
</g>
<g>
	<g>
		<g>
			<g>
				<path class="st0" d="M497.9,804.3c-0.4-1.9-1.2-3.8-2.1-5.4l2.8-3.9l-2.3-2.4l-2.3-2.4l-4,2.7c-1.6-1-3.4-1.8-5.4-2.3l-0.8-4.7
					l-3.3-0.1l-3.3-0.1l-1,4.7c-1.9,0.4-3.8,1.2-5.4,2.1l-3.9-2.8l-2.4,2.3l-2.4,2.3l2.7,4c-1,1.6-1.8,3.4-2.3,5.4l-4.7,0.8
					l-0.1,3.3l-0.1,3.3l4.7,1c0.4,1.9,1.2,3.8,2.1,5.4l-2.8,3.9l2.3,2.4l2.3,2.4l4-2.7c1.6,1,3.4,1.8,5.4,2.3l0.8,4.7l3.3,0.1
					l3.3,0.1l1-4.7c1.9-0.4,3.8-1.2,5.4-2.1l3.9,2.8l2.4-2.3l2.4-2.3l-2.7-4c1-1.6,1.8-3.4,2.3-5.4l4.7-0.8l0.1-3.3l0.1-3.3
					L497.9,804.3z M479.9,820.4c-6.8-0.1-12.2-5.7-12.1-12.5c0.1-6.8,5.7-12.2,12.5-12.1c6.8,0.1,12.2,5.7,12.1,12.5
					C492.3,815.1,486.7,820.5,479.9,820.4z"/>
			</g>
		</g>
	</g>
</g>
<g>
	<g>
		<path class="st0" d="M772,649.6H617.8c-0.8,0-1.5-0.7-1.5-1.5v-0.6c0-0.8,0.7-1.5,1.5-1.5H772c0.8,0,1.5,0.7,1.5,1.5v0.6
			C773.4,648.9,772.8,649.6,772,649.6z"/>
	</g>
	<g>
		<path class="st0" d="M772,664.4H617.8c-0.8,0-1.5-0.7-1.5-1.5v-0.6c0-0.8,0.7-1.5,1.5-1.5H772c0.8,0,1.5,0.7,1.5,1.5v0.6
			C773.4,663.7,772.8,664.4,772,664.4z"/>
	</g>
</g>
<g>
	<g>
		<path class="st0" d="M772.3,727.6H617.5c-0.8,0-1.5-0.7-1.5-1.5v-0.6c0-0.8,0.7-1.5,1.5-1.5h154.7c0.8,0,1.5,0.7,1.5,1.5v0.6
			C773.7,727,773.1,727.6,772.3,727.6z"/>
	</g>
	<g>
		<path class="st0" d="M772.3,742.4H617.5c-0.8,0-1.5-0.7-1.5-1.5v-0.6c0-0.8,0.7-1.5,1.5-1.5h154.7c0.8,0,1.5,0.7,1.5,1.5v0.6
			C773.7,741.8,773.1,742.4,772.3,742.4z"/>
	</g>
</g>
<g>
	<g>
		<path class="st0" d="M772.3,802.7H617.5c-0.8,0-1.5-0.7-1.5-1.5v-0.6c0-0.8,0.7-1.5,1.5-1.5h154.7c0.8,0,1.5,0.7,1.5,1.5v0.6
			C773.7,802.1,773.1,802.7,772.3,802.7z"/>
	</g>
	<g>
		<path class="st0" d="M772.3,817.5H617.5c-0.8,0-1.5-0.7-1.5-1.5v-0.6c0-0.8,0.7-1.5,1.5-1.5h154.7c0.8,0,1.5,0.7,1.5,1.5v0.6
			C773.7,816.9,773.1,817.5,772.3,817.5z"/>
	</g>
</g>
<g>
	<g>
		<path class="st0" d="M616.1,615.8c0-6.2,1.1-11,3.4-14.4c2.3-3.4,5.5-5,9.6-5c4.2,0,7.4,1.7,9.6,5c2.2,3.3,3.4,8.1,3.4,14.4
			c0,6.2-1.1,11-3.4,14.4c-2.3,3.4-5.5,5.1-9.6,5.1s-7.3-1.7-9.6-5.1C617.2,626.8,616.1,622,616.1,615.8z M619.1,615.9
			c0,5.3,0.8,9.4,2.5,12.3c1.7,2.8,4.1,4.3,7.3,4.3c3.2,0,5.6-1.4,7.3-4.3c1.7-2.8,2.5-6.9,2.5-12.3c0-5.3-0.8-9.5-2.5-12.3
			c-1.7-2.9-4.1-4.3-7.3-4.3c-3.2,0-5.6,1.4-7.3,4.3C620,606.4,619.1,610.5,619.1,615.9z"/>
	</g>
	<g>
		<path class="st0" d="M655.8,614.7c-2.5-1.2-4.4-2.5-5.5-3.9c-1.2-1.4-1.8-3.1-1.8-5c0-2.8,1-5.1,3.1-6.8c2.1-1.7,4.9-2.6,8.4-2.6
			c3.6,0,6.4,0.8,8.4,2.5c2,1.7,3,4,3,7c0,1.9-0.6,3.6-1.8,5.1c-1.2,1.4-3,2.7-5.4,3.7c3,1.1,5.2,2.4,6.6,4c1.4,1.6,2.2,3.6,2.2,5.9
			c0,3.3-1.1,5.9-3.3,7.8c-2.2,1.9-5.3,2.9-9.2,2.9c-4.2,0-7.4-0.9-9.8-2.8c-2.4-1.9-3.5-4.5-3.5-7.8c0-2.2,0.7-4,2-5.6
			C650.5,617.6,652.7,616.1,655.8,614.7z M659.8,615.9c-3.2,1.1-5.6,2.4-7.1,3.9c-1.5,1.5-2.3,3.2-2.3,5.2c0,2.3,0.9,4.1,2.6,5.4
			c1.8,1.3,4.1,2,7.2,2c2.9,0,5.2-0.7,6.9-2c1.7-1.4,2.6-3.2,2.6-5.5c0-2.2-0.7-3.9-2.2-5.2C666.1,618.4,663.5,617.1,659.8,615.9z
			 M660.3,613.6c2.6-0.9,4.6-2,5.9-3.3c1.3-1.3,1.9-2.7,1.9-4.4c0-2.1-0.7-3.7-2.1-4.9c-1.4-1.2-3.4-1.8-5.9-1.8
			c-2.5,0-4.5,0.6-6,1.8c-1.5,1.2-2.2,2.7-2.2,4.7c0,1.6,0.6,3,1.9,4.2C654.9,611.1,657.1,612.3,660.3,613.6z"/>
	</g>
	<g>
		<path class="st0" d="M681.1,618.8v-4.9h4.3v4.9H681.1z M681.1,634.6v-4.9h4.3v4.9H681.1z"/>
	</g>
	<g>
		<path class="st0" d="M700.6,613h4.2c2.7,0,4.9-0.6,6.5-1.9c1.6-1.3,2.4-3,2.4-5.2c0-2-0.7-3.6-2.1-4.8c-1.4-1.2-3.2-1.8-5.5-1.8
			c-2,0-3.7,0.4-5.1,1.2c-1.4,0.8-2.7,2.1-3.8,3.9l-2.5-1.5c1.3-2.2,2.9-3.8,4.8-4.9c1.9-1.1,4.1-1.7,6.5-1.7c3.3,0,5.9,0.9,7.9,2.7
			c2,1.8,3,4.1,3,7.1c0,1.9-0.5,3.5-1.4,4.8c-1,1.3-2.5,2.4-4.5,3.2v0.4c2.5,0.8,4.4,2,5.6,3.6c1.2,1.5,1.8,3.5,1.8,5.8
			c0,3.4-1.1,6.1-3.4,8.2c-2.2,2.1-5.2,3.1-8.9,3.1c-2.9,0-5.5-0.7-7.8-2c-2.3-1.3-4.1-3.2-5.5-5.7l2.7-1.7c1.2,2.2,2.6,3.8,4.3,4.9
			c1.7,1.1,3.7,1.6,5.9,1.6c2.8,0,5-0.8,6.7-2.3c1.7-1.5,2.6-3.5,2.6-6c0-2.6-0.9-4.7-2.8-6.2c-1.9-1.5-4.5-2.3-7.7-2.3h-3.9V613z"
			/>
	</g>
	<g>
		<path class="st0" d="M724.5,615.8c0-6.2,1.1-11,3.4-14.4c2.3-3.4,5.5-5,9.6-5c4.2,0,7.4,1.7,9.6,5c2.2,3.3,3.4,8.1,3.4,14.4
			c0,6.2-1.1,11-3.4,14.4c-2.3,3.4-5.5,5.1-9.6,5.1c-4.1,0-7.3-1.7-9.6-5.1C725.6,626.8,724.5,622,724.5,615.8z M727.6,615.9
			c0,5.3,0.8,9.4,2.5,12.3c1.7,2.8,4.1,4.3,7.3,4.3c3.2,0,5.6-1.4,7.3-4.3c1.7-2.8,2.5-6.9,2.5-12.3c0-5.3-0.8-9.5-2.5-12.3
			c-1.7-2.9-4.1-4.3-7.3-4.3c-3.2,0-5.6,1.4-7.3,4.3C728.4,606.4,727.6,610.5,727.6,615.9z"/>
	</g>
</g>
<g>
	<g>
		<g>
			<path class="st0" d="M623.6,678.8c0,2.1-1.7,3.8-3.8,3.8s-3.8-1.7-3.8-3.8c0-2.1,1.7-3.8,3.8-3.8S623.6,676.8,623.6,678.8z"/>
		</g>
	</g>
	<g>
		<g>
			<path class="st0" d="M635.2,678.8c0,2.1-1.7,3.8-3.8,3.8c-2.1,0-3.8-1.7-3.8-3.8c0-2.1,1.7-3.8,3.8-3.8
				C633.5,675.1,635.2,676.8,635.2,678.8z"/>
		</g>
	</g>
	<g>
		<g>
			<path class="st0" d="M646.8,678.8c0,2.1-1.7,3.8-3.8,3.8c-2.1,0-3.8-1.7-3.8-3.8c0-2.1,1.7-3.8,3.8-3.8
				C645.1,675.1,646.8,676.8,646.8,678.8z"/>
		</g>
	</g>
</g>
<g>
	<g>
		<g>
			<path class="st0" d="M623.6,753.6c0,2.1-1.7,3.8-3.8,3.8s-3.8-1.7-3.8-3.8c0-2.1,1.7-3.8,3.8-3.8S623.6,751.5,623.6,753.6z"/>
		</g>
	</g>
	<g>
		<g>
			<path class="st0" d="M635.2,753.6c0,2.1-1.7,3.8-3.8,3.8c-2.1,0-3.8-1.7-3.8-3.8c0-2.1,1.7-3.8,3.8-3.8
				C633.5,749.8,635.2,751.5,635.2,753.6z"/>
		</g>
	</g>
	<g>
		<g>
			<path class="st0" d="M646.8,753.6c0,2.1-1.7,3.8-3.8,3.8c-2.1,0-3.8-1.7-3.8-3.8c0-2.1,1.7-3.8,3.8-3.8
				C645.1,749.8,646.8,751.5,646.8,753.6z"/>
		</g>
	</g>
</g>
<g>
	<g>
		<g>
			<path class="st0" d="M623.6,828.3c0,2.1-1.7,3.8-3.8,3.8s-3.8-1.7-3.8-3.8c0-2.1,1.7-3.8,3.8-3.8S623.6,826.2,623.6,828.3z"/>
		</g>
	</g>
	<g>
		<g>
			<path class="st0" d="M635.2,828.3c0,2.1-1.7,3.8-3.8,3.8c-2.1,0-3.8-1.7-3.8-3.8c0-2.1,1.7-3.8,3.8-3.8
				C633.5,824.5,635.2,826.2,635.2,828.3z"/>
		</g>
	</g>
	<g>
		<g>
			<path class="st0" d="M646.8,828.3c0,2.1-1.7,3.8-3.8,3.8c-2.1,0-3.8-1.7-3.8-3.8c0-2.1,1.7-3.8,3.8-3.8
				C645.1,824.5,646.8,826.2,646.8,828.3z"/>
		</g>
	</g>
</g>
<g>
	<g>
		<g>
			<g>
				<g>
					<g>
						<polygon class="st5" points="894.4,927.3 927.4,927.7 927.8,895.1 895,890.9 						"/>
					</g>
				</g>
			</g>
		</g>
	</g>
</g>
<g>
	<g>
		<g>
			<g>
				<g>
					<g>
						<g>
							<g>
								<g>
									<path class="st10" d="M861.4,933.4h66v-13.5c0,0-4.8-6.5-12.1-3.2c0,0-11.1,7.8-20.8-1.6l-24.2,10.7
										C870.3,925.9,861.4,928.8,861.4,933.4z"/>
								</g>
							</g>
						</g>
					</g>
				</g>
			</g>
		</g>
	</g>
	<g>
		<g>
			<rect x="927.2" y="919.9" width="0.5" height="11.4"/>
		</g>
	</g>
	<g>
		<g>
			<path d="M905.4,920.1c-0.9,0-1.5-0.1-1.5-0.1l0.1-0.5c0.1,0,5.8,0.8,11.2-2.9l0.3,0.4C911.6,919.6,907.5,920.1,905.4,920.1z"/>
		</g>
	</g>
	<g>
		<g>
			<rect x="921.1" y="928" transform="matrix(0.8297 -0.5582 0.5582 0.8297 -360.956 673.2803)" width="3.7" height="0.5"/>
		</g>
	</g>
	<g>
		<g>
			<rect x="918.9" y="927.4" transform="matrix(0.829 -0.5593 0.5593 0.829 -361.3333 673.597)" width="3.7" height="0.5"/>
		</g>
	</g>
	<g>
		<g>
			<g>
				<g>
					<g>
						<g>
							<g>
								<g>
									<path class="st6" d="M927.7,938.1h-65.8c-1.8,0-3.2-1.5-3.2-3.2l0,0c0-1.8,1.5-3.2,3.2-3.2h65.8c0.7,0,1.3,0.6,1.3,1.3v3.9
										C929,937.5,928.4,938.1,927.7,938.1z"/>
								</g>
							</g>
						</g>
					</g>
				</g>
			</g>
		</g>
	</g>
	<g>
		<g>
			<path d="M862,931.7l-0.4-0.2c0.1-0.1,1.4-2.8,6.3-4.9c4.9-2.1,26.3-11.6,26.5-11.7l0.2,0.4c-0.2,0.1-21.6,9.6-26.5,11.7
				C863.4,929,862.1,931.7,862,931.7z"/>
		</g>
	</g>
	<g>
		<g>
			<g>
				<g>
					<g>
						<g>
							<g>
								<g>
									<path d="M859.6,937.5c-0.8-0.7-1.2-1.6-1.2-2.7c0-1.9,1.6-3.5,3.5-3.5h65.5c1,0,1.9,0.8,1.9,1.9v3.2h-0.5v-3.2
										c0-0.8-0.6-1.4-1.4-1.4h-65.5c-1.7,0-3,1.3-3,3c0,0.9,0.4,1.7,1.1,2.3L859.6,937.5z"/>
								</g>
							</g>
						</g>
					</g>
				</g>
			</g>
		</g>
	</g>
</g>
<g>
	<g>
		<g>
			<g>
				<g>
					<g>
						<polygon class="st5" points="956.4,926.8 989.3,927.3 989.8,894.7 957,890.4 						"/>
					</g>
				</g>
			</g>
		</g>
	</g>
</g>
<g>
	<g>
		<g>
			<g>
				<g>
					<path class="st5" d="M750.9,445.8c0.8-1.1,2.4-1.4,3.6-0.6l7.3,4.6c0.2,0.1,0.5,0.1,0.7,0l0,0c0.3-0.2,0.3-0.7,0-1l-9.8-8.2
						c-1.1-0.9-1.1-2.5,0-3.4l0,0c1.1-0.9,3-0.9,4.1,0l9.9,8.4c0.2,0.2,0.6,0.2,0.8,0l0.2-0.1c0.3-0.2,0.3-0.6,0.1-0.9l-9-11.2
						c-0.9-1.1-0.8-2.7,0.2-3.6c1.1-1,2.9-0.9,3.8,0.3l9.1,11.3c0.2,0.3,0.6,0.3,0.9,0.1l0.5-0.4c0.2-0.2,0.3-0.5,0.1-0.8l-7-11.5
						c-0.7-1.2-0.5-2.8,0.7-3.6c1.2-0.9,2.9-0.5,3.7,0.8c0,0,11.6,17,13.6,19.5l2.2-7.2c0.2-1.4,1.4-2.5,2.9-2.3h0
						c1.4,0.2,2.5,1.4,2.3,2.9l0.1,16.8c-0.1,0.9-1.6,2.1-3,2.8c-11.2,10.5-13,12-16.3,14.6l-9.8-13.1c-2.8-3.8-6.3-7-10.3-9.6
						l-1-0.6C750.4,448.8,750,447.1,750.9,445.8z"/>
				</g>
			</g>
		</g>
	</g>
</g>
<g>
	<g>
		<g>
			<path class="st16" d="M951.4,638.7c0,0-6.8,170.2-21.6,268.5c0,0-21.9,3.5-46.7-6.2l-2.8-270.7l2.8-16.1L951.4,638.7z"/>
		</g>
	</g>
</g>
<g>
	<g>
		<g>
			<path class="st10" d="M919.8,908.3c-18.9,0-36.7-7-36.9-7.1c-0.2-0.1-0.3-0.3-0.2-0.4c0.1-0.2,0.3-0.3,0.4-0.2
				c0.2,0.1,24.7,9.8,46.5,6.4c0.6-4.7,9.1-71.4,9.8-86.6c0-0.2,0.2-0.3,0.4-0.3c0.2,0,0.3,0.2,0.3,0.4c-0.8,15.7-9.8,86.2-9.9,86.9
				l0,0.3l-0.3,0C926.7,908.1,923.2,908.3,919.8,908.3z"/>
		</g>
	</g>
</g>
<g>
	<g>
		<g>
			<path class="st3" d="M1001.7,640.2c0,0,2.1,170.4-7.6,269.2c0,0-21.7,4.6-47-3.8l-20.7-238.5l-13-64.5L1001.7,640.2z"/>
		</g>
	</g>
</g>
<g>
	<g>
		<g>
			<path class="st10" d="M981.1,911.1c-16.6,0-33.9-5.1-34.1-5.1c-0.2-0.1-0.3-0.2-0.2-0.4c0.1-0.2,0.2-0.3,0.4-0.2
				c0.3,0.1,27.7,8.1,46.6,3.8c0.4-7.9,10.3-187.5,7.8-253.4c0-0.2,0.1-0.3,0.3-0.4c0,0,0,0,0,0c0.2,0,0.3,0.1,0.3,0.3
				c2.6,67.1-7.7,251.9-7.8,253.8l0,0.3l-0.3,0.1C990.1,910.7,985.6,911.1,981.1,911.1z M994.1,909.5L994.1,909.5L994.1,909.5z"/>
		</g>
	</g>
</g>
<g>
	<g>
		<g>
			<path class="st10" d="M977.9,911.1C977.9,911.1,977.9,911.1,977.9,911.1c-0.2,0-0.3-0.2-0.3-0.4c0-1.7,4.9-172.7,2.8-193.9
				c0-0.2,0.1-0.4,0.3-0.4c0.2,0,0.4,0.1,0.4,0.3c2.2,21.3-2.7,192.3-2.8,194C978.3,910.9,978.1,911.1,977.9,911.1z"/>
		</g>
	</g>
</g>
<g>
	<g>
		<g>
			<path class="st10" d="M915.8,907.9C915.8,907.9,915.8,907.9,915.8,907.9c-0.2,0-0.4-0.2-0.3-0.4l8.2-185.3c0-0.2,0.2-0.4,0.4-0.3
				c0.2,0,0.3,0.2,0.3,0.4l-8.2,185.3C916.1,907.8,916,907.9,915.8,907.9z"/>
		</g>
	</g>
</g>
<g>
	<g>
		<path class="st6" d="M800.1,452.5l-2.5-3.1c0,0-21.8,6.1-29.6,24l3.4,4.6C771.5,478,787.4,458.1,800.1,452.5z"/>
	</g>
</g>
<g>
	<g>
		<path class="st7" d="M877.8,640.2l-0.4-0.5l2.1-117.1c0,0-38.5,25.8-50.1,26.3c-11.5,0.5-59.3-70.3-59.3-70.3
			c10.1-23.1,31.2-26.3,31.2-26.3l39.4,43.2l46.2-41.9c6.2-3.7,53.5-4.5,53.5-4.5s53.9-1.2,60,2.5c6.2,3.7,28.8,65.3,32.3,93.2
			c3.5,27.9,0,46-21.3,49.3l-7.8,0.2l-0.6,46C1003.1,640.2,960.1,649.8,877.8,640.2L877.8,640.2z"/>
	</g>
</g>
<g>
	<g>
		<path class="st17" d="M895.1,602.4H944c2.4,0,4.3-1.9,4.3-4.3V534c0-2.4-1.9-4.3-4.3-4.3h-48.9c-2.4,0-4.3,1.9-4.3,4.3v64.2
			C890.8,600.5,892.7,602.4,895.1,602.4z"/>
	</g>
</g>
<g>
	<g>
		<path class="st18" d="M904.4,526.9h27.8c1.2,0,2.3,1,2.3,2.3v0.5h-32.3v-0.5C902.2,527.9,903.2,526.9,904.4,526.9z"/>
	</g>
</g>
<g>
	<g>
		<g>
			<g>
				<g>
					<path class="st5" d="M889.4,567.1c-6.2-5.5,0.3-6.4,0.3-6.4c-3-3.3-2.3-4.8-1.2-5.5c0.8-0.5,1.8-0.6,2.7-0.2
						c2.9,1.1,11.6,4.5,16.9,7c3.8-0.3,2.6-6.6,0.9-9.9c-0.9-1.7-0.9-4.5,3.2-1.7c3.4,2.3,8.4,9.8,8.4,9.8l21.1-2l-3.1,29
						c0,0-24.1-0.3-27.7-0.4c-3.6,0-15.8-4.2-19.4-7.4c-6.7-5.8-2.5-6.1-2.5-6.1C882.6,566.8,889.4,567.1,889.4,567.1z"/>
				</g>
			</g>
		</g>
	</g>
</g>
<g>
	<g>
		<g>
			<g>
				<g>
					<g>
						<path class="st12" d="M897.3,565.5c0.2,0,0.4-0.1,0.4-0.3c0.1-0.2,0-0.5-0.2-0.6c-3.1-1.3-7.5-4.3-7.6-4.3
							c-0.2-0.1-0.5-0.1-0.6,0.1c-0.1,0.2-0.1,0.5,0.1,0.6c0.2,0.1,4.5,3.1,7.7,4.4C897.2,565.5,897.3,565.5,897.3,565.5z"/>
					</g>
				</g>
			</g>
		</g>
	</g>
</g>
<g>
	<g>
		<g>
			<g>
				<g>
					<g>
						<path class="st12" d="M896.9,571c0.2,0,0.4-0.1,0.5-0.3c0.1-0.2-0.1-0.5-0.3-0.5c-4-1.1-7.3-3.4-7.4-3.4
							c-0.2-0.1-0.5-0.1-0.6,0.1c-0.1,0.2-0.1,0.5,0.1,0.6C889.3,567.6,892.7,569.9,896.9,571C896.8,571,896.8,571,896.9,571z"/>
					</g>
				</g>
			</g>
		</g>
	</g>
</g>
<g>
	<g>
		<g>
			<g>
				<g>
					<g>
						<path class="st12" d="M895.4,577.2c0.2,0,0.4-0.1,0.5-0.3c0.1-0.2-0.1-0.5-0.3-0.5c-3.4-1-6.4-3.3-6.4-3.3
							c-0.2-0.1-0.5-0.1-0.6,0.1c-0.1,0.2-0.1,0.5,0.1,0.6C888.8,573.9,891.8,576.2,895.4,577.2
							C895.4,577.2,895.4,577.2,895.4,577.2z"/>
					</g>
				</g>
			</g>
		</g>
	</g>
</g>
<g>
	<g>
		<polygon class="st10" points="991.9,552.7 992.8,551.7 984.2,544.5 980.9,504.7 979.6,504.8 982.9,545.1 		"/>
	</g>
</g>
<g>
	<g>
		<path class="st10" d="M1003.7,594.9l7.8-0.2c10.5-1.6,17.2-6.8,20.5-15.9c2.9-7.9,3.3-18.7,1.4-34.2l-1.3,0.2
			c4,31.6-2,45.6-20.7,48.5l-7.7,0.2L1003.7,594.9z"/>
	</g>
</g>
<g>
	<g>
		<path class="st6" d="M928.3,551.3h-4.2c0,0-4.5,29,1.6,42.3h5.3C931,593.6,924.9,566.4,928.3,551.3z"/>
	</g>
</g>
<g>
	<g>
		<path class="st7" d="M950.5,546.9l-21.2,1.4c0,0-4.3,13.5,0.9,40.9c0.5,2.7,1.6,7.2,1.6,7.2s21.5,1.7,24.9-5.3
			c2.1-4.4-2.5-23.4-2.5-23.4L950.5,546.9z"/>
	</g>
</g>
<g>
	<g>
		<path class="st10" d="M931.1,597.1l72.6-2.2l0-1.4l-71.5,2.2c-1-4.2-7.6-32.7-2.5-46.8l53.9-3.4l-0.1-1.4l-54.7,3.5l-0.2,0.4
			c-5.9,15.4,2.1,47.2,2.4,48.6L931.1,597.1z"/>
	</g>
</g>
<g>
	<g>
		<path class="st10" d="M840.3,507l1.1-11.2l44.7-40.6c3.3-3,9.6-3,9.7-3v-1.4c0,0,0,0,0,0c-0.3,0-7,0-10.6,3.4l-45.1,40.9
			l-1.2,11.7L840.3,507z"/>
	</g>
</g>
<g>
	<g>
		<path class="st10" d="M840.3,495.9l1-0.9l-39.7-43.5l-0.4,0.1c-0.2,0-21.2,3.7-31.7,26.7l1.2,0.6c9.5-20.7,27.6-25.2,30.4-25.8
			L840.3,495.9z"/>
	</g>
</g>
<g>
	<g>
		<path class="st6" d="M914.9,449.9c13-0.7,25.6-0.9,25.6-0.9s10.4-0.2,22.6-0.2c0,0.1,0,0.1,0,0.2c0,13.3-10.8,24.1-24.1,24.1
			C926,473.2,915.4,462.8,914.9,449.9z"/>
	</g>
</g>
<g>
	<g>
		<path class="st10" d="M929.3,644.9c0.4,0,0.8,0,1.2,0l0-1.4c-17,0.2-47.3-3.4-52-4l1.7-128.3l-1.4,0l-1.7,129.5l0.6,0.1
			C878.1,640.9,910.6,644.9,929.3,644.9z"/>
	</g>
</g>
<g>
	<g>
		<path class="st10" d="M953.4,474.4c6.8-4.3,11.8-10.9,14-18.6l-1.3-0.4c-2.1,7.4-6.8,13.7-13.4,17.8L953.4,474.4z"/>
	</g>
</g>
<g>
	<g>
		<path class="st5" d="M967.4,364.9c0,0-14.9-9.6-30.1-7.2c-8.8,1.4-15.7,8.4-17.2,17.1l-1.5,8.6l47.4-11.2c0,0,6.4,4.5,6,3.4
			C971.6,374.5,967.4,364.9,967.4,364.9z"/>
	</g>
</g>
<g>
	<g>
		<g>
			<g>
				<g>
					<path class="st5" d="M920.2,373.9L914,410c0,0-2.8,12.8,8.3,16.4l-5.1,16.9c-1.9,6.3,0.9,13.1,6.7,16.1
						c2.8,1.5,6.3,2.8,10.4,3.5c12.9,2.2,21.6-6.3,23.5-10.9c1.9-4.7,2.7-28.4,2.7-28.4l2.4-11.3l6.1-44.3L920.2,373.9z"/>
				</g>
			</g>
		</g>
	</g>
</g>
<g>
	<g>
		<g>
			<g>
				<g>
					<path class="st10" d="M948.8,392.6c0.1,0,0.3,0,0.4-0.1c0.2-0.2,0.2-0.6,0-0.8c-0.1-0.1-7.5-7.9-14.4-2.5
						c-0.2,0.2-0.3,0.5-0.1,0.8c0.2,0.2,0.5,0.3,0.8,0.1c6.2-4.8,12.7,2.1,12.9,2.4C948.5,392.6,948.6,392.6,948.8,392.6z"/>
				</g>
			</g>
		</g>
	</g>
</g>
<g>
	<g>
		<g>
			<g>
				<g>
					<path class="st10" d="M925.1,385.8c0.1,0,0.3,0,0.4-0.1c0.2-0.2,0.3-0.5,0.1-0.8c-0.2-0.2-4.4-5.6-8.2-3.5
						c-0.3,0.1-0.4,0.5-0.2,0.7c0.1,0.3,0.5,0.4,0.7,0.2c3-1.7,6.7,3.2,6.8,3.2C924.8,385.8,924.9,385.8,925.1,385.8z"/>
				</g>
			</g>
		</g>
	</g>
</g>
<g>
	<g>
		<g>
			<g>
				<g>
					<path d="M937.2,396.6c-0.2,0.9,0.4,1.7,1.3,1.9c0.9,0.2,1.7-0.4,1.9-1.3c0.2-0.9-0.4-1.7-1.3-1.9
						C938.2,395.1,937.4,395.7,937.2,396.6z"/>
				</g>
			</g>
		</g>
	</g>
</g>
<g>
	<g>
		<g>
			<g>
				<g>
					<path d="M920.3,392c-0.2,0.9,0.4,1.7,1.3,1.9c0.9,0.2,1.7-0.4,1.9-1.3c0.2-0.9-0.4-1.7-1.3-1.9
						C921.3,390.5,920.5,391.1,920.3,392z"/>
				</g>
			</g>
		</g>
	</g>
</g>
<g>
	<g>
		<g>
			<g>
				<g>
					<path class="st10" d="M967.5,364.3c0,0,13.8,1.7,15.2,14.3c1.4,12.6-5.6,17.9-6.3,21.4c-0.7,3.5-2.5,28-19,23.3l2.3-40.5
						l8.6-14.8L967.5,364.3z"/>
				</g>
			</g>
		</g>
	</g>
</g>
<g>
	<g>
		<g>
			<g>
				<g>
					<path class="st5" d="M950.7,398.3c-0.9,5.4,2.7,10.4,8,11.4c5.4,0.9,10.4-2.7,11.4-8c0.9-5.4-2.7-10.4-8-11.4
						C956.7,389.4,951.6,393,950.7,398.3z"/>
				</g>
			</g>
		</g>
	</g>
</g>
<g>
	<g>
		<g>
			<g>
				<g>
					<path class="st12" d="M960.1,406.1c2,0.3,3.6-0.9,4.3-2.4c0.8-1.7,0.5-3.5-0.8-4.7c-1.9-1.7-4-1.2-5.1-0.7c0.6-1,1.4-1.7,2.4-2
						c2.1-0.7,4.3,0.5,4.3,0.5c0.1,0.1,0.3,0,0.4-0.1c0.1-0.1,0-0.3-0.1-0.4c-0.1-0.1-2.5-1.3-4.8-0.5c-1.3,0.5-2.4,1.5-3.1,3.1
						l-0.4,0.9l0.8-0.6c0.1-0.1,2.8-1.9,5.2,0.2c1.3,1.2,1.2,2.9,0.6,4c-0.6,1.2-1.9,2.4-3.7,2.1c0,0,0,0-0.1,0
						c-0.1,0-0.3,0.1-0.3,0.2C959.7,405.9,959.8,406,960.1,406.1C960,406.1,960,406.1,960.1,406.1z"/>
				</g>
			</g>
		</g>
	</g>
</g>
<g>
	<g>
		<g>
			<g>
				<g>
					<path class="st12" d="M950.4,420c0,0-4.5,21.5-31.9,18.9l3.8-12.4C922.3,426.4,939.2,433,950.4,420z"/>
				</g>
			</g>
		</g>
	</g>
</g>
<g>
	<g>
		<g>
			<g>
				<g>
					<path class="st12" d="M929.7,406.5c0.1,0,0.2,0,0.3-0.1c0.1-0.1,0-0.3-0.1-0.4l-5.1-2.7l3.9-12.4c0-0.1,0-0.3-0.2-0.3
						c-0.1,0-0.3,0-0.3,0.2l-4,12.8L929.7,406.5C929.6,406.5,929.6,406.5,929.7,406.5z"/>
				</g>
			</g>
		</g>
	</g>
</g>
<g>
	<g>
		<g>
			<polygon class="st5" points="960.3,426.7 961.6,408.1 957,407.8 953.8,426.1 			"/>
		</g>
	</g>
</g>
<g>
	<g>
		<path class="st10" d="M959.5,383.4c0,0-40.7-9.5-41.6-19.6c-0.9-10.1,8.8-8.7,8.8-8.7s0.6-14,12.3-7.8
			c11.7,6.2,34.9,9.7,39.3,22.3C982.8,382.2,959.5,383.4,959.5,383.4z"/>
	</g>
</g>
<g>
	<path class="st10" d="M960.7,380.9l-1.5,8.9c0,0-4.3,4.6-4.3,11.5c0,0-2.7,0.5-2.8-1.7c-0.1-2.2,5-16.2,0.5-19.7
		c-4.6-3.5,10.2-3.8,10.6-3.5c0.4,0.3,8,6,6.9,5.6C969,381.7,960.7,380.9,960.7,380.9z"/>
</g>
<path class="st12" d="M935.3,409l0.3,0.8c-0.1,0.1-3.7,1.4-6.5,1l0.1-0.9C931.9,410.3,935.3,409,935.3,409z"/>
<g>
	<g>
		<g>
			<g>
				<g>
					<g>
						<g>
							<g>
								<g>
									<path class="st10" d="M923.4,932.9h66v-13.5c0,0-4.8-6.5-12.1-3.2c0,0-11.1,7.8-20.8-1.6l-24.2,10.7
										C932.3,925.4,923.4,928.3,923.4,932.9z"/>
								</g>
							</g>
						</g>
					</g>
				</g>
			</g>
		</g>
	</g>
	<g>
		<g>
			<rect x="989.2" y="919.5" width="0.5" height="11.4"/>
		</g>
	</g>
	<g>
		<g>
			<path d="M967.4,919.6c-0.9,0-1.5-0.1-1.5-0.1l0.1-0.5c0.1,0,5.8,0.8,11.2-2.9l0.3,0.4C973.5,919.2,969.5,919.6,967.4,919.6z"/>
		</g>
	</g>
	<g>
		<g>
			<rect x="983.1" y="927.5" transform="matrix(0.8297 -0.5583 0.5583 0.8297 -350.1516 707.8809)" width="3.7" height="0.5"/>
		</g>
	</g>
	<g>
		<g>
			<rect x="980.8" y="926.9" transform="matrix(0.8291 -0.5592 0.5592 0.8291 -350.4344 707.9633)" width="3.7" height="0.5"/>
		</g>
	</g>
	<g>
		<g>
			<g>
				<g>
					<g>
						<g>
							<g>
								<g>
									<path class="st6" d="M989.6,937.6h-65.8c-1.8,0-3.2-1.5-3.2-3.2l0,0c0-1.8,1.5-3.2,3.2-3.2h65.8c0.7,0,1.3,0.6,1.3,1.3v3.9
										C990.9,937,990.4,937.6,989.6,937.6z"/>
								</g>
							</g>
						</g>
					</g>
				</g>
			</g>
		</g>
	</g>
	<g>
		<g>
			<path d="M924,931.2l-0.4-0.2c0.1-0.1,1.4-2.8,6.3-4.9c4.9-2.1,26.3-11.6,26.5-11.7l0.2,0.4c-0.2,0.1-21.6,9.6-26.5,11.7
				C925.3,928.6,924,931.2,924,931.2z"/>
		</g>
	</g>
	<g>
		<g>
			<g>
				<g>
					<g>
						<g>
							<g>
								<g>
									<path d="M921.5,937c-0.8-0.7-1.2-1.6-1.2-2.7c0-1.9,1.6-3.5,3.5-3.5h65.5c1,0,1.9,0.8,1.9,1.9v3.2h-0.5v-3.2
										c0-0.8-0.6-1.4-1.4-1.4h-65.5c-1.7,0-3,1.3-3,3c0,0.9,0.4,1.7,1.1,2.3L921.5,937z"/>
								</g>
							</g>
						</g>
					</g>
				</g>
			</g>
		</g>
	</g>
</g>
<g>
	<g>
		<path class="st3" d="M549.5,191.5h-13.9l-2.9,4.6h-5.1l11.6-18.5c0.4-0.6,0.8-1,1.3-1.4c0.5-0.4,1.2-0.6,2.1-0.6
			c0.9,0,1.6,0.2,2.1,0.6c0.5,0.4,0.9,0.8,1.3,1.4l11.6,18.5h-5.2L549.5,191.5z M537.7,188.1h9.7l-4.9-7.9L537.7,188.1z"/>
		<path class="st3" d="M575.7,196.1v-8.9c0-0.7-0.1-1.2-0.2-1.6s-0.3-0.8-0.6-1s-0.6-0.4-1.1-0.5c-0.5-0.1-1-0.1-1.8-0.1h-4.8
			c-0.7,0-1.3,0-1.7,0.1c-0.5,0.1-0.8,0.3-1.1,0.5c-0.3,0.2-0.5,0.6-0.6,1s-0.2,1-0.2,1.6v8.9h-4.4v-9c0-1.3,0.1-2.4,0.4-3.2
			c0.2-0.9,0.7-1.6,1.2-2.1c0.6-0.5,1.4-0.9,2.4-1.2c1-0.2,2.2-0.4,3.7-0.4h5.3c1.5,0,2.7,0.1,3.7,0.4c1,0.2,1.8,0.6,2.4,1.2
			c0.6,0.5,1,1.2,1.2,2.1c0.2,0.9,0.4,2,0.4,3.2v9H575.7z"/>
		<path class="st3" d="M591,196.1c-1.5,0-2.7-0.1-3.7-0.4c-1-0.2-1.8-0.6-2.4-1.2c-0.6-0.5-1-1.2-1.2-2.1c-0.2-0.9-0.4-1.9-0.4-3.2
			v-2.1c0-1.3,0.1-2.4,0.4-3.2c0.2-0.9,0.7-1.6,1.2-2.1c0.6-0.5,1.4-0.9,2.4-1.2c1-0.2,2.2-0.4,3.7-0.4h8.9v-5.1h4.4v14.2
			c0,1.3-0.1,2.3-0.4,3.2c-0.2,0.9-0.7,1.6-1.2,2.1c-0.6,0.5-1.4,0.9-2.4,1.2c-1,0.2-2.2,0.4-3.7,0.4H591z M587.7,189.1
			c0,0.7,0.1,1.3,0.2,1.7c0.1,0.4,0.3,0.8,0.6,1c0.3,0.2,0.7,0.4,1.2,0.5c0.5,0.1,1.1,0.1,1.9,0.1h4.9c0.7,0,1.2,0,1.7-0.1
			s0.8-0.3,1-0.5c0.3-0.2,0.4-0.6,0.5-1c0.1-0.4,0.1-1,0.1-1.6V184h-8.3c-0.8,0-1.4,0-1.9,0.1c-0.5,0.1-0.9,0.2-1.2,0.5
			c-0.3,0.2-0.5,0.6-0.6,1c-0.1,0.4-0.2,1-0.2,1.7V189.1z"/>
		<path class="st3" d="M614.9,196.1c-1.5,0-2.7-0.1-3.7-0.4c-1-0.2-1.8-0.6-2.4-1.2c-0.6-0.5-1-1.2-1.2-2.1
			c-0.2-0.9-0.4-1.9-0.4-3.2v-2.1c0-1.3,0.1-2.4,0.4-3.2c0.2-0.9,0.7-1.6,1.2-2.1c0.6-0.5,1.4-0.9,2.4-1.2c1-0.2,2.2-0.4,3.7-0.4
			h5.3c1.5,0,2.7,0.1,3.7,0.4c1,0.2,1.8,0.6,2.4,1.2c0.6,0.5,1,1.3,1.2,2.1c0.2,0.9,0.4,2,0.4,3.2v2.1c0,1.3-0.1,2.3-0.4,3.2
			c-0.2,0.9-0.7,1.6-1.2,2.1c-0.6,0.5-1.4,0.9-2.4,1.2c-1,0.2-2.2,0.4-3.7,0.4H614.9z M623.5,187.3c0-0.7-0.1-1.2-0.2-1.6
			c-0.1-0.4-0.3-0.8-0.6-1c-0.3-0.2-0.7-0.4-1.2-0.5s-1.2-0.1-1.9-0.1h-4.1c-0.8,0-1.4,0-1.9,0.1s-0.9,0.3-1.2,0.5s-0.5,0.6-0.6,1
			c-0.1,0.4-0.2,1-0.2,1.6v1.9c0,0.7,0.1,1.2,0.2,1.6c0.1,0.4,0.3,0.8,0.6,1s0.7,0.4,1.2,0.5s1.1,0.1,1.9,0.1h4.1
			c0.8,0,1.4,0,1.9-0.1s0.9-0.3,1.2-0.5c0.3-0.2,0.5-0.6,0.6-1c0.1-0.4,0.2-1,0.2-1.6V187.3z"/>
		<path class="st3" d="M638.7,196.1c-1.5,0-2.7-0.1-3.7-0.4c-1-0.2-1.8-0.6-2.4-1.2c-0.6-0.5-1-1.2-1.2-2.1
			c-0.2-0.9-0.4-1.9-0.4-3.2v-14.2h4.4v5.1h8.9c1.5,0,2.7,0.1,3.7,0.4c1,0.2,1.8,0.6,2.4,1.2c0.6,0.5,1,1.2,1.2,2.1
			c0.2,0.9,0.4,2,0.4,3.2v2.1c0,1.3-0.1,2.3-0.4,3.2c-0.2,0.9-0.7,1.6-1.2,2.1c-0.6,0.5-1.4,0.9-2.4,1.2c-1,0.2-2.2,0.4-3.7,0.4
			H638.7z M647.6,187.3c0-0.7,0-1.2-0.1-1.7c-0.1-0.4-0.3-0.8-0.5-1c-0.3-0.2-0.6-0.4-1.1-0.5s-1-0.1-1.7-0.1h-8.7v5.2
			c0,0.6,0,1.2,0.1,1.6c0.1,0.4,0.3,0.8,0.5,1s0.6,0.4,1,0.5c0.4,0.1,1,0.1,1.7,0.1h5.3c0.7,0,1.3,0,1.7-0.1s0.8-0.3,1.1-0.5
			s0.4-0.6,0.5-1c0.1-0.4,0.1-1,0.1-1.6V187.3z"/>
		<path class="st3" d="M655.3,196.1v-21.1h4.5v21.1H655.3z"/>
		<path class="st3" d="M670.8,196.1c-1.5,0-2.7-0.1-3.7-0.4c-1-0.2-1.8-0.6-2.4-1.2c-0.6-0.5-1-1.2-1.2-2.1
			c-0.2-0.9-0.4-1.9-0.4-3.2v-9.1h4.4v8.9c0,0.7,0.1,1.2,0.2,1.7c0.1,0.4,0.3,0.7,0.6,1s0.6,0.4,1.1,0.5c0.5,0.1,1,0.1,1.7,0.1h4.6
			c0.7,0,1.3,0,1.8-0.1c0.5-0.1,0.8-0.2,1.1-0.5s0.5-0.6,0.6-1c0.1-0.4,0.2-1,0.2-1.7v-8.9h4.4v9.1c0,1.3-0.1,2.3-0.4,3.2
			c-0.2,0.9-0.7,1.6-1.2,2.1c-0.6,0.5-1.4,0.9-2.4,1.2c-1,0.2-2.2,0.4-3.7,0.4H670.8z"/>
	</g>
	<path class="st3" d="M694.7,171.4L694.7,171.4c-0.3,0-0.5-0.2-0.5-0.5v-5c0-0.3,0.2-0.5,0.5-0.5h5c0.3,0,0.5,0.2,0.5,0.5l0,0
		C700.1,169,697.6,171.4,694.7,171.4z"/>
	<path class="st3" d="M699.9,175.3L699.9,175.3c0,0.3,0.2,0.5,0.5,0.5h5c0.3,0,0.5-0.2,0.5-0.5v-5c0-0.3-0.2-0.5-0.5-0.5l0,0
		C702.3,169.9,699.9,172.3,699.9,175.3z"/>
	<g>
		<path class="st3" d="M699.7,183c0,0.3-0.3,0.6-0.6,0.5c-5.9-0.6-8.8-3.9-10.2-6.6c-1.1-2.2-1.4-4.3-1.5-5.3c0-0.3,0.2-0.6,0.6-0.6
			l4.1,0c0.3,0,0.5,0.2,0.6,0.5c0.1,0.7,0.3,2,1,3.2c1.2,2.1,3.1,3.3,5.9,3.7c0.3,0,0.5,0.3,0.5,0.6L699.7,183z"/>
	</g>
</g>
</svg>
